<?xml version="1.0" encoding="UTF-8" standalone="no"?>
<!-- Created with Inkscape (http://www.inkscape.org/) -->

<svg
   width="130"
   height="60"
   viewBox="0 0 34.395825 15.875"
   version="1.1"
   id="svg1"
   inkscape:version="1.3 (0e150ed6c4, 2023-07-21)"
   sodipodi:docname="circuito-thevenin-fonte-dependente-de-corrente.svg"
   xmlns:inkscape="http://www.inkscape.org/namespaces/inkscape"
   xmlns:sodipodi="http://sodipodi.sourceforge.net/DTD/sodipodi-0.dtd"
   xmlns="http://www.w3.org/2000/svg"
   xmlns:svg="http://www.w3.org/2000/svg">
  <sodipodi:namedview
     id="namedview1"
     pagecolor="#ffffff"
     bordercolor="#000000"
     borderopacity="0.25"
     inkscape:showpageshadow="2"
     inkscape:pageopacity="0.0"
     inkscape:pagecheckerboard="0"
     inkscape:deskcolor="#d1d1d1"
     inkscape:document-units="mm"
     inkscape:zoom="10.764213"
     inkscape:cx="53.8358"
     inkscape:cy="24.432813"
     inkscape:window-width="1366"
     inkscape:window-height="738"
     inkscape:window-x="1024"
     inkscape:window-y="1"
     inkscape:window-maximized="1"
     inkscape:current-layer="layer1" />
  <defs
     id="defs1" />
  <g
     inkscape:label="Layer 1"
     inkscape:groupmode="layer"
     id="layer1">
    <path
       style="fill:#000000;stroke-width:0.264583"
       d="m 26.811774,14.215323 c 0.006,-0.234542 0.228055,-0.873129 0.296119,-0.851704 0.04579,0.01441 0.0808,0.08747 0.07782,0.162341 -0.003,0.07488 0.05415,0.132025 0.12696,0.127 0.165587,-0.01143 0.225147,0.336188 0.08627,0.503523 -0.103759,0.125023 -0.590121,0.173761 -0.587166,0.05884 z m 0.468791,-0.340964 c -0.07066,-0.07066 -0.21637,0.07861 -0.21373,0.218961 0.0024,0.1257 0.01775,0.123262 0.126124,-0.01998 0.06789,-0.08973 0.10731,-0.179274 0.08761,-0.198978 z m -1.252073,0.150464 c -0.10153,-0.162575 -0.197445,-0.169333 -2.40335,-0.169333 -1.939022,0 -2.31405,0.01982 -2.403001,0.127 -0.05797,0.06985 -0.178131,0.127 -0.267024,0.127 -0.08889,0 -0.183554,-0.05715 -0.210358,-0.127 -0.0419,-0.109203 -0.425863,-0.127 -2.739951,-0.127 -2.314088,0 -2.698046,0.0178 -2.739951,0.127 -0.0268,0.06985 -0.146376,0.127 -0.265715,0.127 -0.11934,0 -0.238912,-0.05715 -0.265716,-0.127 -0.04255,-0.110883 -0.676166,-0.127 -4.9926759,-0.127 h -4.943941 v -1.016 c 0,-0.996773 -0.0036,-1.016027 -0.1905,-1.017393 -0.338556,-0.0025 -0.856795,-0.365585 -1.067863,-0.74821 -0.495064,-0.897454 -0.04293,-2.0199906 0.93116,-2.3118346 l 0.327203,-0.09803 v -0.707414 c 0,-0.41623 -0.04323,-0.776641 -0.105033,-0.875598 -0.0836,-0.133864 -0.0836,-0.202505 0,-0.336369 0.0745,-0.119291 0.105033,-0.660794 0.105033,-1.862667 v -1.694482 h 1.591043 1.591043 l 0.92779,-0.548766 c 0.510285,-0.301821 0.96589,-0.548766 1.012457,-0.548766 0.04657,0 0.5021719,0.246945 1.0124559,0.548766 l 0.927791,0.548766 h 1.591043 1.591043 v 1.679026 c 0,1.655649 0.0027,1.680395 0.1905,1.777305 0.284445,0.146744 5.465604,0.180686 5.520972,0.03617 0.05588,-0.145852 0.341266,-0.132978 0.469194,0.02117 0.08898,0.107207 0.465235,0.127 2.414309,0.127 1.974258,0 2.315971,-0.01841 2.357642,-0.127 0.02839,-0.074 0.155177,-0.127 0.303779,-0.127 0.201787,0 0.266195,0.04443 0.308445,0.212766 0.09747,0.388333 -0.306116,0.619864 -0.588413,0.337567 -0.106598,-0.106598 -0.493103,-0.127 -2.405925,-0.127 -2.071903,0 -2.291234,0.0136 -2.414423,0.149723 -0.09899,0.109388 -0.150964,0.411608 -0.192908,1.121833 -0.05444,0.921731 -0.04809,0.980469 0.122375,1.133399 0.22395,0.200909 0.22628,0.27821 0.01045,0.346712 -0.09313,0.02956 -0.169333,0.08671 -0.169333,0.127 0,0.04029 0.0762,0.09744 0.169333,0.1269996 0.229369,0.0728 0.212891,0.183436 -0.04765,0.319949 l -0.216986,0.11369 0.216986,0.09887 c 0.284843,0.129783 0.273948,0.227691 -0.0398,0.357648 -0.243021,0.100663 -0.249207,0.114734 -0.115435,0.26255 0.12329,0.136234 0.13373,0.289887 0.08172,1.202753 l -0.05962,1.046566 0.214414,0.140489 c 0.186322,0.122083 0.512945,0.140489 2.493025,0.140489 1.922144,0 2.295101,-0.01987 2.384013,-0.127 0.216966,-0.261428 0.592667,-0.09157 0.592667,0.267955 0,0.179252 -0.213377,0.367045 -0.41705,0.367045 -0.04923,0 -0.137103,-0.0762 -0.195266,-0.169333 z M 20.683589,13.62136 c 0.05789,-0.03733 0.12051,-0.485326 0.156634,-1.120537 0.05777,-1.015906 0.05255,-1.068001 -0.130308,-1.299491 -0.156655,-0.19832 -0.169439,-0.25449 -0.07197,-0.316204 0.06519,-0.04127 0.147101,-0.07563 0.182026,-0.07634 0.134325,-0.0027 0.05526,-0.161833 -0.105833,-0.212963 -0.231099,-0.07335 -0.212555,-0.195604 0.04765,-0.314162 l 0.216985,-0.09887 -0.216985,-0.11369 c -0.283124,-0.1483436 -0.273795,-0.2335416 0.0398,-0.3634356 0.243357,-0.100801 0.249367,-0.114558 0.114937,-0.2631 -0.123548,-0.13652 -0.134219,-0.287113 -0.08273,-1.167427 0.08689,-1.485508 0.348232,-1.36232 -2.890142,-1.36232 -2.2071,0 -2.648183,0.01965 -2.648183,0.117942 0,0.06487 -0.05864,0.140445 -0.130317,0.167948 -0.106118,0.04072 -0.12577,0.1854 -0.105833,0.779157 l 0.02448,0.729148 0.327045,0.112207 c 1.464691,0.502526 1.412072,2.6050086 -0.07547,3.0157396 l -0.293903,0.08115 v 0.747653 c 0,0.504275 0.03529,0.776939 0.108399,0.837617 0.05962,0.04948 0.316795,0.104248 0.5715,0.121705 0.893135,0.06122 4.866763,0.05983 4.962215,-0.0017 z m -0.706727,-2.221203 c -0.152293,-0.381066 -0.200844,-0.677334 -0.111,-0.677334 0.05254,0 0.08628,-0.31453 0.08628,-0.8043326 0,-0.479778 0.03416,-0.804333 0.08467,-0.804333 0.05045,0 0.08467,0.322203 0.08467,0.797277 0,0.5122126 0.03383,0.8085556 0.09463,0.8288206 0.06728,0.02243 0.05861,0.15293 -0.03001,0.451555 -0.118735,0.400118 -0.128646,0.409987 -0.209231,0.208347 z m -0.874465,-0.631292 c 0.05628,-0.06781 0.07774,-0.16306 0.0477,-0.211666 -0.03305,-0.05347 0.03932,-0.08786 0.183211,-0.08708 0.155317,8.46e-4 0.200118,0.02523 0.129129,0.07027 -0.05992,0.03802 -0.08435,0.132422 -0.05444,0.21037 0.04252,0.110802 0.0043,0.141398 -0.176833,0.141398 -0.192726,0 -0.214104,-0.02047 -0.128769,-0.123292 z m -0.390276,-0.256046 c 0.03008,-0.07838 0.05469,-0.215596 0.05469,-0.30492 0,-0.08933 0.05683,-0.162409 0.126287,-0.162409 0.191222,0 0.112202,0.541286 -0.08468,0.580087 -0.111732,0.02202 -0.136762,-0.0073 -0.09629,-0.112758 z m 0.139354,-0.6366616 c 0,-0.04657 0.0594,-0.08467 0.131996,-0.08467 0.0726,0 0.10845,0.0381 0.07967,0.08467 -0.02878,0.04657 -0.08818,0.08467 -0.131996,0.08467 -0.04382,0 -0.07967,-0.0381 -0.07967,-0.08467 z m -3.997606,2.8717676 0.02406,-0.811231 -0.337745,-0.101191 c -0.664757,-0.199166 -1.185956,-0.869372 -1.190183,-1.530448 -0.0041,-0.6479636 0.546732,-1.3581076 1.187323,-1.5306016 l 0.334817,-0.09016 -0.0027,-0.737569 c -0.0017,-0.478701 -0.04216,-0.78957 -0.115159,-0.885734 -0.100908,-0.132929 -0.297383,-0.148167 -1.910404,-0.148167 -1.671953,0 -1.814867,0.01206 -2.039664,0.17213 l -0.241734,0.17213 -0.123395,-0.235509 -0.123396,-0.235508 -0.10603,0.232712 c -0.133146,0.292223 -0.193888,0.292223 -0.3270339,0 l -0.106031,-0.232712 -0.12193,0.232712 c -0.06706,0.127991 -0.138785,0.232712 -0.159385,0.232712 -0.0206,0 -0.09833,-0.11772 -0.172733,-0.261599 -0.126551,-0.244722 -0.145081,-0.252726 -0.287235,-0.124079 -0.134768,0.121963 -0.35915,0.130903 -1.983563,0.07903 -1.622764,-0.05182 -1.831606,-0.04354 -1.831606,0.07269 0,0.07215 -0.05715,0.153112 -0.127,0.179916 -0.0989,0.03795 -0.127,0.205608 -0.127,0.757657 v 0.708922 l 0.327203,0.09803 c 0.974089,0.291844 1.426223,1.4143806 0.931159,2.3118346 -0.211067,0.382625 -0.729306,0.745735 -1.067862,0.74821 -0.185381,0.0013 -0.1905,0.0253 -0.1905,0.891075 v 0.889682 l 4.931833,-0.02185 4.9318329,-0.02185 z M 11.570142,10.68049 c 0,-0.07056 -0.07526,-0.127 -0.169334,-0.127 -0.09313,0 -0.169333,-0.02094 -0.169333,-0.04654 0,-0.103847 0.251492,-0.5233136 0.375417,-0.6261616 0.116114,-0.09637 0.132583,-0.07256 0.132583,0.1916686 0,0.165937 0.03732,0.324769 0.08293,0.352959 0.05222,0.03227 0.04467,0.112517 -0.02037,0.216664 -0.123002,0.196957 -0.2319,0.214993 -0.2319,0.03841 z m 0.856896,-0.359833 c 0.129413,-0.267759 0.258159,-0.4868336 0.286104,-0.4868336 0.02794,0 0.15669,0.2190746 0.286103,0.4868336 l 0.235295,0.486833 h -0.197199 c -0.118844,0 -0.197199,-0.05046 -0.197199,-0.127 0,-0.0727 -0.07627,-0.127 -0.178392,-0.127 -0.123786,0 -0.163474,0.03888 -0.129657,0.127 0.0346,0.09018 -0.0077,0.127 -0.145808,0.127 H 12.191743 Z M 5.4003021,11.53455 c 0.761456,-0.318997 1.061214,-1.192005 0.656525,-1.9120506 -0.500542,-0.890596 -1.850161,-0.890596 -2.350704,0 -0.632556,1.1254806 0.505585,2.4099876 1.694179,1.9120506 z m -0.899827,-0.303727 c 0.02878,-0.04657 0.20023,-0.08467 0.381,-0.08467 0.18077,0 0.35222,0.0381 0.381,0.08467 0.03228,0.05223 -0.113675,0.08467 -0.381,0.08467 -0.267325,0 -0.413281,-0.03243 -0.381,-0.08467 z m 0.296334,-1.4334446 c 0,-0.10195 -0.07167,-0.177543 -0.1905,-0.200918 l -0.1905,-0.03747 0.1905,-0.06296 c 0.104775,-0.03463 0.1905,-0.115663 0.1905,-0.180082 0,-0.06442 0.0381,-0.117125 0.08467,-0.117125 0.04657,0 0.08467,0.05271 0.08467,0.117125 0,0.06442 0.08573,0.145456 0.1905,0.180082 l 0.1905,0.06296 -0.1905,0.03747 c -0.118827,0.02337 -0.1905,0.09897 -0.1905,0.200918 0,0.08989 -0.0381,0.163445 -0.08467,0.163445 -0.04657,0 -0.08467,-0.07355 -0.08467,-0.163445 z M 15.643773,11.469237 c 0.442285,-0.248579 0.704743,-0.782502 0.645037,-1.312214 -0.0749,-0.6644776 -0.552714,-1.1263226 -1.232892,-1.1916786 -0.515094,-0.04949 -1.030321,0.203301 -1.298396,0.637055 -0.312791,0.5061056 -0.198048,1.3336986 0.239859,1.7299996 0.401041,0.362937 1.135491,0.42398 1.646392,0.136838 z m -0.75108,-0.385186 c -0.09996,-0.286754 -0.03662,-1.7158936 0.07605,-1.7158936 0.04,0 0.07273,0.24765 0.07273,0.550333 0,0.3471866 0.03473,0.5503326 0.09409,0.5503326 0.06286,0 0.07434,0.105393 0.0346,0.3175 -0.09408,0.502136 -0.175689,0.5897 -0.27747,0.297728 z M 9.7891401,6.4894904 c 0.04194,0 0.100442,0.0762 0.130002,0.169333 0.02956,0.09313 0.08671,0.169334 0.1269999,0.169334 0.04029,0 0.09744,-0.0762 0.127,-0.169334 0.07287,-0.229609 0.195415,-0.212968 0.311738,0.04233 0.101288,0.222301 0.233197,0.267864 0.372425,0.128637 0.04805,-0.04805 0.902439,-0.09264 2.027766,-0.105834 l 1.944737,-0.0228 0.02295,-1.672167 0.02296,-1.672167 -1.504623,1.29e-4 -1.504624,1.28e-4 -0.931333,0.562311 c -0.512233,0.309271 -0.9694329,0.562311 -1.0159999,0.562311 -0.04657,0 -0.503766,-0.25304 -1.016,-0.562311 l -0.931332,-0.562311 -1.502831,-1.28e-4 -1.502833,-1.28e-4 v 1.59436 c 0,1.569463 0.003,1.595809 0.1905,1.687179 0.106462,0.05187 0.957817,0.116323 1.929875,0.146098 1.682716,0.05154 1.744509,0.04761 1.896956,-0.120846 0.206217,-0.227867 0.283559,-0.219645 0.403164,0.04286 l 0.09886,0.216986 0.113691,-0.216986 c 0.06253,-0.119342 0.148006,-0.216985 0.189947,-0.216984 z m 0.137376,-0.242068 c -0.02472,-0.04 -0.01649,-0.239447 0.01829,-0.443207 0.05156,-0.302053 0.1066779,-0.385748 0.2984229,-0.453181 0.334674,-0.117699 0.522576,0.0261 0.522576,0.399929 0,0.164575 0.03224,0.279258 0.07164,0.25485 0.0394,-0.02441 0.05806,0.02681 0.04147,0.113816 -0.0166,0.08701 -0.111382,0.169829 -0.210639,0.184048 -0.165972,0.02378 -0.179504,-0.01022 -0.168468,-0.423333 0.0093,-0.348166 -0.01656,-0.449187 -0.115002,-0.449187 -0.161018,0 -0.208327,0.316661 -0.09561,0.63999 0.08028,0.230303 0.07161,0.24901 -0.115461,0.24901 -0.111246,0 -0.2224939,-0.03273 -0.2472179,-0.07273 z m -0.821529,-0.252139 c 0.269396,-0.378333 0.219632,-0.691353 -0.06613,-0.41596 -0.08882,0.0856 -0.103978,0.07345 -0.07927,-0.0635 0.02246,-0.124507 0.09717,-0.169333 0.282225,-0.169333 0.322776,0 0.370904,0.207802 0.127349,0.549844 -0.194687,0.273413 -0.173481,0.307792 0.09968,0.161601 0.136992,-0.07332 0.16566,-0.06886 0.136056,0.02117 -0.02063,0.06273 -0.181857,0.126143 -0.358284,0.140918 l -0.320777,0.02686 z m 1.6554649,-2.193622 c 0.445329,-0.267572 0.80878,-0.505697 0.807669,-0.529167 -0.003,-0.06379 -1.542417,-0.959893 -1.6489789,-0.959893 -0.106804,0 -1.645969,0.89618 -1.64898,0.96012 -0.0022,0.04656 1.527054,0.99712 1.622457,1.0085 0.03198,0.0038 0.4225039,-0.211988 0.8678329,-0.47956 z M 9.1359751,3.4953054 c -0.197908,-0.04283 -0.359833,-0.109092 -0.359833,-0.147248 0,-0.116426 0.709063,-0.277044 0.745147,-0.168792 0.0197,0.05908 0.336533,0.09289 0.8705749,0.09289 0.503296,0 0.839611,0.03391 0.839611,0.08467 0,0.05075 -0.336315,0.08467 -0.839611,0.08467 -0.4617859,0 -0.8523109,0.02963 -0.8678329,0.06584 -0.01552,0.03621 -0.190148,0.0308 -0.388056,-0.01203 z M 22.591546,10.532323 c 0.0058,-0.506239 0.106411,-0.6561656 0.440317,-0.6561656 0.342392,0 0.540666,0.3141546 0.383554,0.6077216 -0.06769,0.12647 -0.06779,0.158822 -3.97e-4,0.117165 0.05619,-0.03473 0.09311,0.01158 0.09311,0.116782 0,0.128615 -0.05446,0.174331 -0.207678,0.174331 -0.198684,0 -0.205565,-0.01784 -0.158896,-0.411886 0.03333,-0.281455 0.01567,-0.432352 -0.05579,-0.476514 -0.227084,-0.1403456 -0.299469,0.288848 -0.124842,0.740233 0.04538,0.117307 0.01245,0.148167 -0.158098,0.148167 -0.197635,0 -0.215077,-0.0297 -0.211293,-0.359834 z m -21.77983588,0.02926 c 0.26129798,-0.366958 0.21307198,-0.6895356 -0.06197,-0.414496 -0.07902,0.07902 -0.1016,0.07192 -0.1016,-0.03197 0,-0.1824886 0.223192,-0.3535716 0.38184198,-0.2926916 0.210038,0.0806 0.246686,0.3088226 0.09172,0.5711626 -0.108525,0.183719 -0.116946,0.244259 -0.03385,0.243343 0.06084,-6.62e-4 0.218118,-0.196068 0.349505,-0.434216 0.132971,-0.2410206 0.270449,-0.4000166 0.310078,-0.3586126 0.06937,0.07248 0.123068,0.5175846 0.09834,0.8152146 -0.01497,0.1802 -0.266308,0.200177 -0.266308,0.02117 0,-0.06985 -0.05307,-0.127 -0.117941,-0.127 -0.06487,0 -0.139872,0.05715 -0.166676,0.127 -0.03083,0.08034 -0.160701,0.127 -0.35349098,0.127 h -0.304748 z M 2.4719681,10.36299 c -0.109225,-0.244475 -0.166779,-0.4781336 -0.127899,-0.5192426 0.101994,-0.107838 0.341142,0.0054 0.290444,0.137467 -0.02353,0.06131 0.01179,0.1860836 0.07847,0.2772806 0.115477,0.157924 0.124885,0.151766 0.19775,-0.12943 0.04208,-0.1623826 0.121708,-0.2952416 0.176957,-0.2952416 0.05525,0 0.102298,0.01905 0.104555,0.04233 0.0114,0.117627 -0.376097,0.9313326 -0.443518,0.9313326 -0.04299,0 -0.167536,-0.200025 -0.27676,-0.4445 z m 19.1190439,0.316422 c -0.02703,-0.07044 -0.009,-0.176496 0.04015,-0.235673 0.05202,-0.06268 0.05924,-0.156222 0.01731,-0.224078 -0.116281,-0.188143 -0.0028,-0.3435036 0.251008,-0.3435036 0.234783,0 0.404809,0.2031276 0.250074,0.2987596 -0.05085,0.03143 -0.04703,0.114023 0.01022,0.220994 0.05028,0.09395 0.07063,0.224984 0.04522,0.291195 -0.06254,0.162976 -0.550829,0.156857 -0.613973,-0.0077 z m 0.393129,-0.07859 c 0,-0.0671 -0.0381,-0.14555 -0.08467,-0.17433 -0.04657,-0.02878 -0.08467,0.02612 -0.08467,0.122003 0,0.09588 0.0381,0.17433 0.08467,0.17433 0.04657,0 0.08467,-0.0549 0.08467,-0.122003 z m 0,-0.55533 c 0,-0.04657 -0.0381,-0.08467 -0.08467,-0.08467 -0.04657,0 -0.08467,0.0381 -0.08467,0.08467 0,0.04657 0.0381,0.08467 0.08467,0.08467 0.04657,0 0.08467,-0.0381 0.08467,-0.08467 z m 4.826001,-2.8573736 c 0,-0.231407 0.181459,-0.428433 0.423333,-0.459645 0.191542,-0.02472 0.211114,8.73e-4 0.205846,0.269019 -0.0055,0.278996 -0.02405,0.29787 -0.3175,0.322611 -0.257339,0.0217 -0.311679,-0.0013 -0.311679,-0.131985 z m 0.422036,-0.301458 c 7.94e-4,-0.03767 -0.0368,-0.04495 -0.08337,-0.01617 -0.04657,0.02878 -0.08408,0.116753 -0.08337,0.195497 0.0011,0.123382 0.01265,0.125617 0.08337,0.01617 0.04514,-0.06985 0.08266,-0.157824 0.08337,-0.195497 z M 10.367875,1.9852234 c 0.171465,-0.171464 0.114003,-0.235314 -0.162079,-0.180097 -0.2479739,0.04959 -0.2597879,0.04064 -0.198359,-0.150284 0.03593,-0.11166 0.06568,-0.250644 0.06612,-0.308852 4.49e-4,-0.05821 0.03422,-0.105833 0.07507,-0.105833 0.04085,0 0.06307,-0.04875 0.04939,-0.108336 -0.01368,-0.05958 0.01322,-0.116309 0.05979,-0.126054 0.103912,-0.02174 0.118087,0.210905 0.02847,0.467223 -0.06105,0.174598 -0.04118,0.1905 0.237997,0.1905 0.26116,0 0.289572,0.01811 0.199204,0.127 -0.07855,0.09464 -0.07991,0.127 -0.0054,0.127 0.05502,0 0.07648,0.0381 0.0477,0.08467 -0.02878,0.04657 -0.152948,0.08467 -0.27593,0.08467 -0.173913,0 -0.201025,-0.02258 -0.122003,-0.1016 z M 9.0301421,1.7389784 c 0,-0.05782 0.08125,-0.07345 0.211666,-0.04072 0.249621,0.06265 0.286607,-0.08621 0.0635,-0.255575 -0.09049,-0.06869 -0.106967,-0.113523 -0.04233,-0.115167 0.05821,-0.0015 0.105834,-0.06392 0.105834,-0.138751 0,-0.08935 -0.04603,-0.118395 -0.134075,-0.08461 -0.08512,0.03266 -0.121185,0.01278 -0.09878,-0.05444 0.01941,-0.05824 0.127372,-0.10589101 0.239908,-0.10589101 0.165024,0 0.206268,0.04534 0.213176,0.23434301 0.0047,0.128888 0.03195,0.257723 0.06052,0.286299 0.02858,0.02858 0.01386,0.123147 -0.03271,0.210157 -0.09244,0.172729 -0.586709,0.226945 -0.586709,0.06436 z"
       id="path1" />
    <path
       style="fill:#ffffff;stroke-width:0.232833"
       d="m 11.362562,10.425158 0.244525,-0.348619 0.02136,0.361887 z"
       id="path11" />
    <path
       style="fill:#ffffff;stroke-width:0.232833"
       d="m 12.567932,10.446454 0.116006,-0.324555 0.107185,0.196475 z"
       id="path12" />
    <path
       style="fill:#ffffff;stroke-width:0.232833"
       d="m 1.2625395,10.463923 0.1291394,0.111253 -0.067138,0.05946 -0.1313875,-0.105579 z"
       id="path13" />
    <path
       style="fill:#ffffff;stroke-width:0.232833"
       d="m 1.4295738,10.404682 0.1984267,-0.327583 0.018737,0.350062 z"
       id="path14" />
    <path
       style="fill:#ffffff;stroke-width:0.232833"
       d="m 10.145718,1.1885959 0.284567,-0.016761 -0.0379,0.081758 z"
       id="path15" />
    <path
       style="fill:#ffffff;stroke-width:0.232833"
       d="m 10.324673,1.5809432 -0.112664,0.2930076 0.184623,-0.031465 z"
       id="path16" />
    <path
       style="fill:#ffffff;stroke-width:0.232833"
       d="m 10.508105,1.6380023 0.06127,0.1745214 0.06071,-0.1901898 z"
       id="path17" />
    <path
       style="fill:#ffffff;stroke-width:0.232833"
       d="m 10.472431,2.1312563 0.06742,-0.2295076 0.17239,0.1942144 z"
       id="path18" />
    <path
       style="fill:#ffffff;stroke-width:0.232833"
       d="m 19.232019,10.423799 0.01086,0.02518 0.02108,0.169628 0.152542,-0.199654 z"
       id="path19" />
    <path
       style="fill:#ffffff;stroke-width:0.232833"
       d="m 19.167076,10.948617 0.0255,-0.0308 0.0437,-0.171942 0.102319,0.231592 -0.190426,-0.03159 z"
       id="path20" />
    <rect
       style="fill:#ffffff;stroke:none;stroke-width:0.232833;stroke-dasharray:none;stroke-dashoffset:0"
       id="rect23"
       width="6.4708538"
       height="3.6331437"
       x="0.68152517"
       y="8.7200689" />
    <rect
       style="fill:#ffffff;stroke:none;stroke-width:0.232833;stroke-dasharray:none;stroke-dashoffset:0"
       id="rect24"
       width="2.4406509"
       height="1.2355926"
       x="3.9046094"
       y="8.3912878" />
    <rect
       style="fill:#ffffff;stroke:none;stroke-width:0.232833;stroke-dasharray:none;stroke-dashoffset:0"
       id="rect25"
       width="0.10974485"
       height="1.0233186"
       x="0.61877507"
       y="9.9277811" />
    <rect
       style="fill:#000000;stroke:none;stroke-width:0.232833;stroke-dasharray:none;stroke-dashoffset:0"
       id="rect26"
       width="0.16622642"
       height="4.0949874"
       x="4.7966747"
       y="8.3618107" />
    <rect
       style="fill:#ffffff;stroke:none;stroke-width:0.252773;stroke-dasharray:none;stroke-dashoffset:0"
       id="rect27"
       width="7.8815584"
       height="6.1283865"
       x="9.9940548"
       y="7.4626336" />
    <rect
       style="fill:#ffffff;stroke:none;stroke-width:0.232833;stroke-dasharray:none;stroke-dashoffset:0"
       id="rect28"
       width="1.1748551"
       height="1.040405"
       x="14.430843"
       y="6.9375811" />
    <rect
       style="fill:#000000;stroke:none;stroke-width:0.232833;stroke-dasharray:none;stroke-dashoffset:0"
       id="rect30"
       width="2.2030294"
       height="0.31979954"
       x="25.207447"
       y="9.5638866" />
    <rect
       style="fill:#000000;stroke:none;stroke-width:0.232833;stroke-dasharray:none;stroke-dashoffset:0"
       id="rect31"
       width="0.90693218"
       height="0.27489254"
       x="25.911108"
       y="10.22206" />
    <rect
       style="fill:#000000;stroke:none;stroke-width:0.232833;stroke-dasharray:none;stroke-dashoffset:0"
       id="rect32"
       width="0.20590262"
       height="3.2410636"
       x="26.255766"
       y="10.281075" />
    <rect
       style="fill:#000000;stroke:none;stroke-width:0.232833;stroke-dasharray:none;stroke-dashoffset:0"
       id="rect33"
       width="0.28105173"
       height="2.6865053"
       x="26.195671"
       y="7.0586591" />
    <text
       xml:space="preserve"
       style="font-size:3.175px;fill:#000000;stroke:none;stroke-width:0.232833;stroke-dasharray:none;stroke-dashoffset:0"
       x="24.736067"
       y="8.5798607"
       id="text33"><tspan
         sodipodi:role="line"
         id="tspan33"
         style="stroke-width:0.232833"
         x="24.736067"
         y="8.5798607" /></text>
    <text
       xml:space="preserve"
       style="font-size:1.41111px;fill:#000000;stroke:none;stroke-width:0.232833;stroke-dasharray:none;stroke-dashoffset:0"
       x="28.062695"
       y="10.547174"
       id="text34"><tspan
         sodipodi:role="line"
         id="tspan34"
         style="font-size:1.41111px;stroke-width:0.232833"
         x="28.062695"
         y="10.547174">V_0</tspan></text>
    <rect
       style="fill:#ffffff;stroke:none;stroke-width:0.232833;stroke-dasharray:none;stroke-dashoffset:0"
       id="rect34"
       width="0.53387558"
       height="0.57851559"
       x="19.026405"
       y="10.410796" />
    <rect
       style="fill:#ffffff;stroke:none;stroke-width:0.232833;stroke-dasharray:none;stroke-dashoffset:0"
       id="rect35"
       width="0.96173084"
       height="1.6311071"
       x="18.302883"
       y="9.2896032" />
    <rect
       style="fill:#ffffff;stroke:none;stroke-width:0.232833;stroke-dasharray:none;stroke-dashoffset:0"
       id="rect36"
       width="1.1788363"
       height="1.0125986"
       x="9.9328928"
       y="0.90195233" />
    <rect
       style="fill:#ffffff;stroke:none;stroke-width:0.232833;stroke-dasharray:none;stroke-dashoffset:0"
       id="rect37"
       width="0.84956998"
       height="0.73278171"
       x="10.237525"
       y="1.517403" />
  </g>
</svg>
