<?xml version="1.0" encoding="UTF-8" standalone="no"?>
<!-- Generator: Circuit Diagram, cdlibrary.dll 4.0.0.0 -->

<svg
   version="1.1"
   width="560"
   height="260"
   id="svg27"
   sodipodi:docname="thevenin-exemplo-1-passo-4.svg"
   inkscape:version="1.3 (0e150ed6c4, 2023-07-21)"
   xmlns:inkscape="http://www.inkscape.org/namespaces/inkscape"
   xmlns:sodipodi="http://sodipodi.sourceforge.net/DTD/sodipodi-0.dtd"
   xmlns="http://www.w3.org/2000/svg"
   xmlns:svg="http://www.w3.org/2000/svg">
  <defs
     id="defs27" />
  <sodipodi:namedview
     id="namedview27"
     pagecolor="#ffffff"
     bordercolor="#000000"
     borderopacity="0.25"
     inkscape:showpageshadow="2"
     inkscape:pageopacity="0.0"
     inkscape:pagecheckerboard="0"
     inkscape:deskcolor="#d1d1d1"
     inkscape:zoom="1.5982143"
     inkscape:cx="280"
     inkscape:cy="130.14525"
     inkscape:window-width="1366"
     inkscape:window-height="738"
     inkscape:window-x="1024"
     inkscape:window-y="1"
     inkscape:window-maximized="1"
     inkscape:current-layer="svg27" />
  <text
     x="60"
     y="140"
     style="font-family:Arial;font-size:11px;text-anchor:start"
     dominant-baseline="middle"
     transform="rotate(0, 60, 140)"
     id="text1">25V</text>
  <text
     x="370"
     y="130"
     style="font-family:Arial;font-size:11px;text-anchor:start"
     dominant-baseline="middle"
     transform="rotate(0, 370, 130)"
     id="text2">3A</text>
  <text
     x="520"
     y="230"
     style="font-family:Arial;font-size:11px;text-anchor:start"
     dominant-baseline="middle"
     transform="rotate(0, 520, 230)"
     id="text3">B</text>
  <text
     x="520"
     y="40"
     style="font-family:Arial;font-size:11px;text-anchor:start"
     dominant-baseline="middle"
     transform="rotate(0, 520, 40)"
     id="text4">A</text>
  <line
     x1="340"
     y1="220"
     x2="520"
     y2="220"
     style="stroke:rgb(0, 0, 0);stroke-linecap:square;stroke-width:2"
     id="line4" />
  <line
     x1="240"
     y1="220"
     x2="340"
     y2="220"
     style="stroke:rgb(0, 0, 0);stroke-linecap:square;stroke-width:2"
     id="line5" />
  <line
     x1="240"
     y1="160"
     x2="240"
     y2="220"
     style="stroke:rgb(0, 0, 0);stroke-linecap:square;stroke-width:2"
     id="line6" />
  <line
     x1="40"
     y1="220"
     x2="240"
     y2="220"
     style="stroke:rgb(0, 0, 0);stroke-linecap:square;stroke-width:2"
     id="line7" />
  <line
     x1="40"
     y1="50"
     x2="140"
     y2="50"
     style="stroke:rgb(0, 0, 0);stroke-linecap:square;stroke-width:2"
     id="line8" />
  <line
     x1="40"
     y1="50"
     x2="40"
     y2="60"
     style="stroke:rgb(0, 0, 0);stroke-linecap:square;stroke-width:2"
     id="line9" />
  <line
     x1="240"
     y1="50"
     x2="240"
     y2="110"
     style="stroke:rgb(0, 0, 0);stroke-linecap:square;stroke-width:2"
     id="line10" />
  <line
     x1="190"
     y1="50"
     x2="340"
     y2="50"
     style="stroke:rgb(0, 0, 0);stroke-linecap:square;stroke-width:2"
     id="line11" />
  <line
     x1="340"
     y1="50"
     x2="390"
     y2="50"
     style="stroke:rgb(0, 0, 0);stroke-linecap:square;stroke-width:2"
     id="line12" />
  <line
     x1="440"
     y1="50"
     x2="520"
     y2="50"
     style="stroke:rgb(0, 0, 0);stroke-linecap:square;stroke-width:2"
     id="line13" />
  <line
     x1="390"
     y1="50"
     x2="395"
     y2="50"
     style="stroke:rgb(0, 0, 0);stroke-linecap:square;stroke-width:2"
     id="line14" />
  <line
     x1="435"
     y1="50"
     x2="440"
     y2="50"
     style="stroke:rgb(0, 0, 0);stroke-linecap:square;stroke-width:2"
     id="line15" />
  <path
     d="M 395,50 L 397,50 L 400,43 L 406,57 L 412,43 L 418,57 L 424,43 L 430,57 L 433,50 L 435,50"
     style="fill-opacity:0;fill:rgb(0, 0, 0);stroke:rgb(0, 0, 0);stroke-linecap:square;stroke-width:2"
     id="path15" />
  <text
     x="415"
     y="36"
     style="font-family:Arial;font-size:11px;text-anchor:middle"
     dominant-baseline="baseline"
     transform="rotate(0, 415, 36)"
     id="text15">4 Ω</text>
  <line
     x1="340"
     y1="220"
     x2="340"
     y2="151"
     style="stroke:rgb(0, 0, 0);stroke-linecap:square;stroke-width:2"
     id="line16" />
  <ellipse
     cx="340"
     cy="135"
     rx="16"
     ry="16"
     style="fill-opacity:0;fill:rgb(0, 0, 0);stroke:rgb(0, 0, 0);stroke-width:2"
     id="ellipse16" />
  <line
     x1="340"
     y1="119"
     x2="340"
     y2="50"
     style="stroke:rgb(0, 0, 0);stroke-linecap:square;stroke-width:2"
     id="line17" />
  <line
     x1="340"
     y1="145"
     x2="340"
     y2="130"
     style="stroke:rgb(0, 0, 0);stroke-linecap:square;stroke-width:2"
     id="line18" />
  <path
     d="M 340,130 L 343,130 L 340,125 L 337,130 L 340,130"
     style="fill-opacity:1;fill:rgb(0, 0, 0);stroke:rgb(0, 0, 0);stroke-linecap:square;stroke-width:2"
     id="path18" />
  <line
     x1="240"
     y1="110"
     x2="240"
     y2="115"
     style="stroke:rgb(0, 0, 0);stroke-linecap:square;stroke-width:2"
     id="line19" />
  <line
     x1="240"
     y1="155"
     x2="240"
     y2="160"
     style="stroke:rgb(0, 0, 0);stroke-linecap:square;stroke-width:2"
     id="line20" />
  <path
     d="M 240,115 L 240,117 L 233,120 L 247,126 L 233,132 L 247,138 L 233,144 L 247,150 L 240,153 L 240,155"
     style="fill-opacity:0;fill:rgb(0, 0, 0);stroke:rgb(0, 0, 0);stroke-linecap:square;stroke-width:2"
     id="path20" />
  <text
     x="226"
     y="135"
     style="font-family:Arial;font-size:11px;text-anchor:end"
     dominant-baseline="middle"
     transform="rotate(0, 226, 135)"
     id="text20">20 Ω</text>
  <line
     x1="140"
     y1="50"
     x2="145"
     y2="50"
     style="stroke:rgb(0, 0, 0);stroke-linecap:square;stroke-width:2"
     id="line21" />
  <line
     x1="185"
     y1="50"
     x2="190"
     y2="50"
     style="stroke:rgb(0, 0, 0);stroke-linecap:square;stroke-width:2"
     id="line22" />
  <path
     d="M 145,50 L 147,50 L 150,43 L 156,57 L 162,43 L 168,57 L 174,43 L 180,57 L 183,50 L 185,50"
     style="fill-opacity:0;fill:rgb(0, 0, 0);stroke:rgb(0, 0, 0);stroke-linecap:square;stroke-width:2"
     id="path22" />
  <text
     x="165"
     y="36"
     style="font-family:Arial;font-size:11px;text-anchor:middle"
     dominant-baseline="baseline"
     transform="rotate(0, 165, 36)"
     id="text22">5 Ω</text>
  <line
     x1="40"
     y1="60"
     x2="40"
     y2="124"
     style="stroke:rgb(0, 0, 0);stroke-linecap:square;stroke-width:2"
     id="line23" />
  <ellipse
     cx="40"
     cy="140"
     rx="16"
     ry="16"
     style="fill-opacity:0;fill:rgb(0, 0, 0);stroke:rgb(0, 0, 0);stroke-width:2"
     id="ellipse23" />
  <line
     x1="40"
     y1="156"
     x2="40"
     y2="220"
     style="stroke:rgb(0, 0, 0);stroke-linecap:square;stroke-width:2"
     id="line24" />
  <path
     d="M 40,140 M 40,130 L 40,138 M 36,134 L 44,134 M 36,148 L 44,148"
     style="fill-opacity:0;fill:rgb(0, 0, 0);stroke:rgb(0, 0, 0);stroke-linecap:square;stroke-width:2"
     id="path24" />
  <ellipse
     cx="340"
     cy="220"
     rx="2"
     ry="2"
     style="fill-opacity:1;fill:rgb(0, 0, 0);stroke:rgb(0, 0, 0);stroke-width:2"
     id="ellipse24" />
  <ellipse
     cx="240"
     cy="220"
     rx="2"
     ry="2"
     style="fill-opacity:1;fill:rgb(0, 0, 0);stroke:rgb(0, 0, 0);stroke-width:2"
     id="ellipse25" />
  <ellipse
     cx="240"
     cy="50"
     rx="2"
     ry="2"
     style="fill-opacity:1;fill:rgb(0, 0, 0);stroke:rgb(0, 0, 0);stroke-width:2"
     id="ellipse26" />
  <ellipse
     cx="340"
     cy="50"
     rx="2"
     ry="2"
     style="fill-opacity:1;fill:rgb(0, 0, 0);stroke:rgb(0, 0, 0);stroke-width:2"
     id="ellipse27" />
</svg>
