<?xml version="1.0" encoding="UTF-8" standalone="no"?>
<!-- Generator: Circuit Diagram, cdlibrary.dll 4.0.0.0 -->

<svg
   version="1.1"
   width="560"
   height="280"
   id="svg31"
   sodipodi:docname="thevenin-exemplo-1-passo-1.svg"
   inkscape:version="1.3 (0e150ed6c4, 2023-07-21)"
   xmlns:inkscape="http://www.inkscape.org/namespaces/inkscape"
   xmlns:sodipodi="http://sodipodi.sourceforge.net/DTD/sodipodi-0.dtd"
   xmlns="http://www.w3.org/2000/svg"
   xmlns:svg="http://www.w3.org/2000/svg">
  <defs
     id="defs31" />
  <sodipodi:namedview
     id="namedview31"
     pagecolor="#ffffff"
     bordercolor="#000000"
     borderopacity="0.25"
     inkscape:showpageshadow="2"
     inkscape:pageopacity="0.0"
     inkscape:pagecheckerboard="0"
     inkscape:deskcolor="#d1d1d1"
     inkscape:zoom="1.5982143"
     inkscape:cx="280"
     inkscape:cy="140.15642"
     inkscape:window-width="1366"
     inkscape:window-height="738"
     inkscape:window-x="1024"
     inkscape:window-y="1"
     inkscape:window-maximized="1"
     inkscape:current-layer="svg31" />
  <text
     x="70"
     y="150"
     style="font-family:Arial;font-size:11px;text-anchor:start"
     dominant-baseline="middle"
     transform="rotate(0, 70, 150)"
     id="text1">25V</text>
  <text
     x="380"
     y="140"
     style="font-family:Arial;font-size:11px;text-anchor:start"
     dominant-baseline="middle"
     transform="rotate(0, 380, 140)"
     id="text2">3A</text>
  <text
     x="530"
     y="240"
     style="font-family:Arial;font-size:11px;text-anchor:start"
     dominant-baseline="middle"
     transform="rotate(0, 530, 240)"
     id="text3">B</text>
  <text
     x="530"
     y="50"
     style="font-family:Arial;font-size:11px;text-anchor:start"
     dominant-baseline="middle"
     transform="rotate(0, 530, 50)"
     id="text4">A</text>
  <line
     x1="530"
     y1="170"
     x2="530"
     y2="230"
     style="stroke:rgb(0, 0, 0);stroke-linecap:square;stroke-width:2"
     id="line4" />
  <line
     x1="350"
     y1="230"
     x2="530"
     y2="230"
     style="stroke:rgb(0, 0, 0);stroke-linecap:square;stroke-width:2"
     id="line5" />
  <line
     x1="250"
     y1="230"
     x2="350"
     y2="230"
     style="stroke:rgb(0, 0, 0);stroke-linecap:square;stroke-width:2"
     id="line6" />
  <line
     x1="250"
     y1="170"
     x2="250"
     y2="230"
     style="stroke:rgb(0, 0, 0);stroke-linecap:square;stroke-width:2"
     id="line7" />
  <line
     x1="50"
     y1="230"
     x2="250"
     y2="230"
     style="stroke:rgb(0, 0, 0);stroke-linecap:square;stroke-width:2"
     id="line8" />
  <line
     x1="50"
     y1="60"
     x2="150"
     y2="60"
     style="stroke:rgb(0, 0, 0);stroke-linecap:square;stroke-width:2"
     id="line9" />
  <line
     x1="50"
     y1="60"
     x2="50"
     y2="70"
     style="stroke:rgb(0, 0, 0);stroke-linecap:square;stroke-width:2"
     id="line10" />
  <line
     x1="250"
     y1="60"
     x2="250"
     y2="120"
     style="stroke:rgb(0, 0, 0);stroke-linecap:square;stroke-width:2"
     id="line11" />
  <line
     x1="200"
     y1="60"
     x2="350"
     y2="60"
     style="stroke:rgb(0, 0, 0);stroke-linecap:square;stroke-width:2"
     id="line12" />
  <line
     x1="350"
     y1="60"
     x2="400"
     y2="60"
     style="stroke:rgb(0, 0, 0);stroke-linecap:square;stroke-width:2"
     id="line13" />
  <line
     x1="530"
     y1="60"
     x2="530"
     y2="120"
     style="stroke:rgb(0, 0, 0);stroke-linecap:square;stroke-width:2"
     id="line14" />
  <line
     x1="450"
     y1="60"
     x2="530"
     y2="60"
     style="stroke:rgb(0, 0, 0);stroke-linecap:square;stroke-width:2"
     id="line15" />
  <line
     x1="530"
     y1="120"
     x2="530"
     y2="125"
     style="stroke:rgb(0, 0, 0);stroke-linecap:square;stroke-width:2"
     id="line16" />
  <line
     x1="530"
     y1="165"
     x2="530"
     y2="170"
     style="stroke:rgb(0, 0, 0);stroke-linecap:square;stroke-width:2"
     id="line17" />
  <path
     d="M 530,125 L 530,127 L 523,130 L 537,136 L 523,142 L 537,148 L 523,154 L 537,160 L 530,163 L 530,165"
     style="fill-opacity:0;fill:rgb(0, 0, 0);stroke:rgb(0, 0, 0);stroke-linecap:square;stroke-width:2"
     id="path17" />
  <text
     x="516"
     y="151"
     style="font-family:Arial;font-size:11px;text-anchor:end"
     dominant-baseline="middle"
     transform="rotate(0, 516, 151)"
     id="text17">2 Ω</text>
  <text
     x="516"
     y="139"
     style="font-family:Arial;font-size:11px;text-anchor:end"
     dominant-baseline="middle"
     transform="rotate(0, 516, 139)"
     id="text18">R_L</text>
  <line
     x1="400"
     y1="60"
     x2="405"
     y2="60"
     style="stroke:rgb(0, 0, 0);stroke-linecap:square;stroke-width:2"
     id="line18" />
  <line
     x1="445"
     y1="60"
     x2="450"
     y2="60"
     style="stroke:rgb(0, 0, 0);stroke-linecap:square;stroke-width:2"
     id="line19" />
  <path
     d="M 405,60 L 407,60 L 410,53 L 416,67 L 422,53 L 428,67 L 434,53 L 440,67 L 443,60 L 445,60"
     style="fill-opacity:0;fill:rgb(0, 0, 0);stroke:rgb(0, 0, 0);stroke-linecap:square;stroke-width:2"
     id="path19" />
  <text
     x="425"
     y="46"
     style="font-family:Arial;font-size:11px;text-anchor:middle"
     dominant-baseline="baseline"
     transform="rotate(0, 425, 46)"
     id="text19">4 Ω</text>
  <line
     x1="350"
     y1="230"
     x2="350"
     y2="161"
     style="stroke:rgb(0, 0, 0);stroke-linecap:square;stroke-width:2"
     id="line20" />
  <ellipse
     cx="350"
     cy="145"
     rx="16"
     ry="16"
     style="fill-opacity:0;fill:rgb(0, 0, 0);stroke:rgb(0, 0, 0);stroke-width:2"
     id="ellipse20" />
  <line
     x1="350"
     y1="129"
     x2="350"
     y2="60"
     style="stroke:rgb(0, 0, 0);stroke-linecap:square;stroke-width:2"
     id="line21" />
  <line
     x1="350"
     y1="155"
     x2="350"
     y2="140"
     style="stroke:rgb(0, 0, 0);stroke-linecap:square;stroke-width:2"
     id="line22" />
  <path
     d="M 350,140 L 353,140 L 350,135 L 347,140 L 350,140"
     style="fill-opacity:1;fill:rgb(0, 0, 0);stroke:rgb(0, 0, 0);stroke-linecap:square;stroke-width:2"
     id="path22" />
  <line
     x1="250"
     y1="120"
     x2="250"
     y2="125"
     style="stroke:rgb(0, 0, 0);stroke-linecap:square;stroke-width:2"
     id="line23" />
  <line
     x1="250"
     y1="165"
     x2="250"
     y2="170"
     style="stroke:rgb(0, 0, 0);stroke-linecap:square;stroke-width:2"
     id="line24" />
  <path
     d="M 250,125 L 250,127 L 243,130 L 257,136 L 243,142 L 257,148 L 243,154 L 257,160 L 250,163 L 250,165"
     style="fill-opacity:0;fill:rgb(0, 0, 0);stroke:rgb(0, 0, 0);stroke-linecap:square;stroke-width:2"
     id="path24" />
  <text
     x="236"
     y="145"
     style="font-family:Arial;font-size:11px;text-anchor:end"
     dominant-baseline="middle"
     transform="rotate(0, 236, 145)"
     id="text24">20 Ω</text>
  <line
     x1="150"
     y1="60"
     x2="155"
     y2="60"
     style="stroke:rgb(0, 0, 0);stroke-linecap:square;stroke-width:2"
     id="line25" />
  <line
     x1="195"
     y1="60"
     x2="200"
     y2="60"
     style="stroke:rgb(0, 0, 0);stroke-linecap:square;stroke-width:2"
     id="line26" />
  <path
     d="M 155,60 L 157,60 L 160,53 L 166,67 L 172,53 L 178,67 L 184,53 L 190,67 L 193,60 L 195,60"
     style="fill-opacity:0;fill:rgb(0, 0, 0);stroke:rgb(0, 0, 0);stroke-linecap:square;stroke-width:2"
     id="path26" />
  <text
     x="175"
     y="46"
     style="font-family:Arial;font-size:11px;text-anchor:middle"
     dominant-baseline="baseline"
     transform="rotate(0, 175, 46)"
     id="text26">5 Ω</text>
  <line
     x1="50"
     y1="70"
     x2="50"
     y2="134"
     style="stroke:rgb(0, 0, 0);stroke-linecap:square;stroke-width:2"
     id="line27" />
  <ellipse
     cx="50"
     cy="150"
     rx="16"
     ry="16"
     style="fill-opacity:0;fill:rgb(0, 0, 0);stroke:rgb(0, 0, 0);stroke-width:2"
     id="ellipse27" />
  <line
     x1="50"
     y1="166"
     x2="50"
     y2="230"
     style="stroke:rgb(0, 0, 0);stroke-linecap:square;stroke-width:2"
     id="line28" />
  <path
     d="M 50,150 M 50,140 L 50,148 M 46,144 L 54,144 M 46,158 L 54,158"
     style="fill-opacity:0;fill:rgb(0, 0, 0);stroke:rgb(0, 0, 0);stroke-linecap:square;stroke-width:2"
     id="path28" />
  <ellipse
     cx="350"
     cy="230"
     rx="2"
     ry="2"
     style="fill-opacity:1;fill:rgb(0, 0, 0);stroke:rgb(0, 0, 0);stroke-width:2"
     id="ellipse28" />
  <ellipse
     cx="250"
     cy="230"
     rx="2"
     ry="2"
     style="fill-opacity:1;fill:rgb(0, 0, 0);stroke:rgb(0, 0, 0);stroke-width:2"
     id="ellipse29" />
  <ellipse
     cx="250"
     cy="60"
     rx="2"
     ry="2"
     style="fill-opacity:1;fill:rgb(0, 0, 0);stroke:rgb(0, 0, 0);stroke-width:2"
     id="ellipse30" />
  <ellipse
     cx="350"
     cy="60"
     rx="2"
     ry="2"
     style="fill-opacity:1;fill:rgb(0, 0, 0);stroke:rgb(0, 0, 0);stroke-width:2"
     id="ellipse31" />
  <rect
     style="fill:none;stroke:#ff0000;stroke-width:3.77953;-inkscape-stroke:none;stroke-dasharray:3.77953005,3.77953005;stroke-dashoffset:0"
     id="rect31"
     width="469.02573"
     height="227.32687"
     x="13.703496"
     y="26.741289" />
</svg>
