<?xml version="1.0" encoding="UTF-8" standalone="no"?>
<!-- Generator: Circuit Diagram, cdlibrary.dll 4.0.0.0 -->

<svg
   version="1.1"
   width="420"
   height="260"
   id="svg20"
   sodipodi:docname="thevenin-exemplo-1-passo-4-2-2.svg"
   inkscape:version="1.3 (0e150ed6c4, 2023-07-21)"
   xmlns:inkscape="http://www.inkscape.org/namespaces/inkscape"
   xmlns:sodipodi="http://sodipodi.sourceforge.net/DTD/sodipodi-0.dtd"
   xmlns="http://www.w3.org/2000/svg"
   xmlns:svg="http://www.w3.org/2000/svg">
  <defs
     id="defs20">
    <inkscape:path-effect
       effect="powerstroke"
       id="path-effect22"
       is_visible="true"
       lpeversion="1.3"
       scale_width="1"
       interpolator_type="CentripetalCatmullRom"
       interpolator_beta="0.75"
       start_linecap_type="round"
       end_linecap_type="round"
       offset_points="14.176922,0.71202532"
       linejoin_type="spiro"
       miter_limit="4"
       not_jump="true"
       sort_points="true"
       message="&lt;b&gt;Ctrl + click&lt;/b&gt; on existing node and move it" />
    <inkscape:path-effect
       effect="simplify"
       id="path-effect21"
       is_visible="true"
       lpeversion="1.3"
       threshold="0.012"
       steps="1"
       smooth_angles="0"
       helper_size="0"
       simplify_individual_paths="false"
       simplify_just_coalesce="false"
       step="1" />
  </defs>
  <sodipodi:namedview
     id="namedview20"
     pagecolor="#ffffff"
     bordercolor="#000000"
     borderopacity="0.25"
     inkscape:showpageshadow="2"
     inkscape:pageopacity="0.0"
     inkscape:pagecheckerboard="0"
     inkscape:deskcolor="#d1d1d1"
     inkscape:zoom="1.8620479"
     inkscape:cx="206.22456"
     inkscape:cy="114.39019"
     inkscape:window-width="1024"
     inkscape:window-height="1252"
     inkscape:window-x="0"
     inkscape:window-y="0"
     inkscape:window-maximized="1"
     inkscape:current-layer="svg20" />
  <text
     x="60"
     y="140"
     style="font-family:Arial;font-size:11px;text-anchor:start"
     dominant-baseline="middle"
     transform="rotate(0, 60, 140)"
     id="text1">25V</text>
  <text
     x="346.48816"
     y="111.41688"
     style="font-size:11px;font-family:Arial;text-anchor:start"
     dominant-baseline="middle"
     id="text2">3A</text>
  <text
     x="340"
     y="230"
     style="font-family:Arial;font-size:11px;text-anchor:start"
     dominant-baseline="middle"
     transform="rotate(0, 340, 230)"
     id="text3">B</text>
  <text
     x="340"
     y="40"
     style="font-family:Arial;font-size:11px;text-anchor:start"
     dominant-baseline="middle"
     transform="rotate(0, 340, 40)"
     id="text4">A</text>
  <line
     x1="240"
     y1="220"
     x2="340"
     y2="220"
     style="stroke:rgb(0, 0, 0);stroke-linecap:square;stroke-width:2"
     id="line4" />
  <line
     x1="240"
     y1="160"
     x2="240"
     y2="220"
     style="stroke:rgb(0, 0, 0);stroke-linecap:square;stroke-width:2"
     id="line5" />
  <line
     x1="40"
     y1="220"
     x2="240"
     y2="220"
     style="stroke:rgb(0, 0, 0);stroke-linecap:square;stroke-width:2"
     id="line6" />
  <line
     x1="40"
     y1="50"
     x2="140"
     y2="50"
     style="stroke:rgb(0, 0, 0);stroke-linecap:square;stroke-width:2"
     id="line7" />
  <line
     x1="40"
     y1="50"
     x2="40"
     y2="60"
     style="stroke:rgb(0, 0, 0);stroke-linecap:square;stroke-width:2"
     id="line8" />
  <line
     x1="240"
     y1="50"
     x2="240"
     y2="110"
     style="stroke:rgb(0, 0, 0);stroke-linecap:square;stroke-width:2"
     id="line9" />
  <line
     x1="190"
     y1="50"
     x2="340"
     y2="50"
     style="stroke:rgb(0, 0, 0);stroke-linecap:square;stroke-width:2"
     id="line10" />
  <line
     x1="340"
     y1="220"
     x2="340"
     y2="151"
     style="stroke:rgb(0, 0, 0);stroke-linecap:square;stroke-width:2"
     id="line11" />
  <ellipse
     cx="340"
     cy="135"
     rx="16"
     ry="16"
     style="fill-opacity:0;fill:rgb(0, 0, 0);stroke:rgb(0, 0, 0);stroke-width:2"
     id="ellipse11" />
  <line
     x1="340"
     y1="119"
     x2="340"
     y2="50"
     style="stroke:rgb(0, 0, 0);stroke-linecap:square;stroke-width:2"
     id="line12" />
  <line
     x1="340"
     y1="145"
     x2="340"
     y2="130"
     style="stroke:rgb(0, 0, 0);stroke-linecap:square;stroke-width:2"
     id="line13" />
  <path
     d="M 340,130 L 343,130 L 340,125 L 337,130 L 340,130"
     style="fill-opacity:1;fill:rgb(0, 0, 0);stroke:rgb(0, 0, 0);stroke-linecap:square;stroke-width:2"
     id="path13" />
  <line
     x1="240"
     y1="110"
     x2="240"
     y2="115"
     style="stroke:rgb(0, 0, 0);stroke-linecap:square;stroke-width:2"
     id="line14" />
  <line
     x1="240"
     y1="155"
     x2="240"
     y2="160"
     style="stroke:rgb(0, 0, 0);stroke-linecap:square;stroke-width:2"
     id="line15" />
  <path
     d="M 240,115 L 240,117 L 233,120 L 247,126 L 233,132 L 247,138 L 233,144 L 247,150 L 240,153 L 240,155"
     style="fill-opacity:0;fill:rgb(0, 0, 0);stroke:rgb(0, 0, 0);stroke-linecap:square;stroke-width:2"
     id="path15" />
  <text
     x="226"
     y="135"
     style="font-family:Arial;font-size:11px;text-anchor:end"
     dominant-baseline="middle"
     transform="rotate(0, 226, 135)"
     id="text15">20 Ω</text>
  <line
     x1="140"
     y1="50"
     x2="145"
     y2="50"
     style="stroke:rgb(0, 0, 0);stroke-linecap:square;stroke-width:2"
     id="line16" />
  <line
     x1="185"
     y1="50"
     x2="190"
     y2="50"
     style="stroke:rgb(0, 0, 0);stroke-linecap:square;stroke-width:2"
     id="line17" />
  <path
     d="M 145,50 L 147,50 L 150,43 L 156,57 L 162,43 L 168,57 L 174,43 L 180,57 L 183,50 L 185,50"
     style="fill-opacity:0;fill:rgb(0, 0, 0);stroke:rgb(0, 0, 0);stroke-linecap:square;stroke-width:2"
     id="path17" />
  <text
     x="165"
     y="36"
     style="font-family:Arial;font-size:11px;text-anchor:middle"
     dominant-baseline="baseline"
     transform="rotate(0, 165, 36)"
     id="text17">5 Ω</text>
  <line
     x1="40"
     y1="60"
     x2="40"
     y2="124"
     style="stroke:rgb(0, 0, 0);stroke-linecap:square;stroke-width:2"
     id="line18" />
  <ellipse
     cx="40"
     cy="140"
     rx="16"
     ry="16"
     style="fill-opacity:0;fill:rgb(0, 0, 0);stroke:rgb(0, 0, 0);stroke-width:2"
     id="ellipse18" />
  <line
     x1="40"
     y1="156"
     x2="40"
     y2="220"
     style="stroke:rgb(0, 0, 0);stroke-linecap:square;stroke-width:2"
     id="line19" />
  <path
     d="M 40,140 M 40,130 L 40,138 M 36,134 L 44,134 M 36,148 L 44,148"
     style="fill-opacity:0;fill:rgb(0, 0, 0);stroke:rgb(0, 0, 0);stroke-linecap:square;stroke-width:2"
     id="path19" />
  <ellipse
     cx="240"
     cy="220"
     rx="2"
     ry="2"
     style="fill-opacity:1;fill:rgb(0, 0, 0);stroke:rgb(0, 0, 0);stroke-width:2"
     id="ellipse19" />
  <ellipse
     cx="240"
     cy="50"
     rx="2"
     ry="2"
     style="fill-opacity:1;fill:rgb(0, 0, 0);stroke:rgb(0, 0, 0);stroke-width:2"
     id="ellipse20" />
  <path
     style="fill:#000000;stroke-width:3.77953;-inkscape-stroke:none"
     d="m 149.91548,16.788917 h 28.3596"
     id="path20" />
  <path
     style="fill:#000000;stroke-width:3.77953;-inkscape-stroke:none"
     d="m 145.16391,20.87456 h 34.49368 v -2.02329 h -34.69478 z"
     id="path39" />
  <path
     style="fill:#000000;stroke-width:3.77953;-inkscape-stroke:none"
     d="m 180.89817,19.658087 -3.84121,-6.653174 v 14.343986 z"
     id="path40" />
  <path
     style="fill:#000000;stroke-width:3.77953;-inkscape-stroke:none"
     d="M 81.984912,153.13817 V 124.77858"
     id="path20-3" />
  <path
     style="fill:#000000;stroke-width:3.77953;-inkscape-stroke:none"
     d="m 86.070562,157.88974 v -34.49367 h -2.02329 v 34.69477 z"
     id="path39-6" />
  <path
     style="fill:#000000;stroke-width:3.77953;-inkscape-stroke:none"
     d="m 84.854082,122.15549 -6.65317,3.84121 h 14.34399 z"
     id="path40-7" />
  <text
     xml:space="preserve"
     style="fill:#000000;stroke-width:3.77953;-inkscape-stroke:none"
     x="94.879044"
     y="130.84372"
     id="text40"><tspan
       sodipodi:role="line"
       id="tspan40"
       x="94.879044"
       y="130.84372" /><tspan
       sodipodi:role="line"
       x="94.879044"
       y="145.84372"
       id="tspan56">i_1</tspan><tspan
       sodipodi:role="line"
       x="94.879044"
       y="160.84372"
       id="tspan57" /></text>
  <text
     xml:space="preserve"
     style="fill:#000000;stroke-width:3.77953;-inkscape-stroke:none"
     x="145.76163"
     y="15.030056"
     id="text41"><tspan
       sodipodi:role="line"
       id="tspan41"
       x="145.76163"
       y="15.030056">+ i_1 -</tspan></text>
  <text
     xml:space="preserve"
     style="fill:#000000;stroke-width:3.77953;-inkscape-stroke:none"
     x="155.51651"
     y="73.89962"
     id="text42"><tspan
       sodipodi:role="line"
       id="tspan42"
       x="155.51651"
       y="73.89962">V_i</tspan></text>
  <text
     xml:space="preserve"
     style="fill:#000000;stroke-width:3.77953;-inkscape-stroke:none"
     x="250.52869"
     y="135.68915"
     id="text42-1"><tspan
       sodipodi:role="line"
       id="tspan42-2"
       x="250.52869"
       y="135.68915">V_j</tspan></text>
  <path
     style="fill:#000000;stroke-width:3.77953;-inkscape-stroke:none"
     d="m 195.55326,117.92525 v 34.49367 h 2.02329 v -34.69477 z"
     id="path39-6-2" />
  <path
     style="fill:#000000;stroke-width:3.77953;-inkscape-stroke:none"
     d="m 196.76974,153.6595 6.65317,-3.84121 h -14.34399 z"
     id="path40-7-9" />
  <text
     xml:space="preserve"
     style="fill:#000000;stroke-width:3.77953;-inkscape-stroke:none"
     x="172.4491"
     y="124.14"
     id="text43"><tspan
       sodipodi:role="line"
       id="tspan43"
       x="172.4491"
       y="124.14">+</tspan><tspan
       sodipodi:role="line"
       x="172.4491"
       y="139.14"
       id="tspan44">i_2</tspan><tspan
       sodipodi:role="line"
       x="172.4491"
       y="154.14"
       id="tspan45">-</tspan></text>
  <text
     xml:space="preserve"
     style="fill:#000000;stroke-width:3.77953;-inkscape-stroke:none"
     x="295.53625"
     y="124.05177"
     id="text46"><tspan
       sodipodi:role="line"
       x="295.53625"
       y="124.05177"
       id="tspan59">+</tspan><tspan
       sodipodi:role="line"
       x="295.53625"
       y="139.05177"
       id="tspan60">V_k</tspan><tspan
       sodipodi:role="line"
       x="295.53625"
       y="154.05177"
       id="tspan61">-</tspan><tspan
       sodipodi:role="line"
       x="295.53625"
       y="169.05177"
       id="tspan55" /></text>
  <ellipse
     style="fill:none;stroke:#000000;stroke-width:0.504596;stroke-dasharray:none"
     id="path46"
     cx="239.89853"
     cy="49.378689"
     rx="6.3086386"
     ry="5.4955435" />
  <text
     xml:space="preserve"
     style="fill:#000000;stroke:none;stroke-width:0.88;stroke-dasharray:none"
     x="230.89264"
     y="38.95137"
     id="text47"><tspan
       sodipodi:role="line"
       id="tspan47"
       x="230.89264"
       y="38.95137">N_1</tspan></text>
  <ellipse
     style="fill:none;stroke:#000000;stroke-width:0.504596;stroke-dasharray:none"
     id="path46-0"
     cx="239.63347"
     cy="219.18279"
     rx="6.3086386"
     ry="5.4955435" />
  <text
     xml:space="preserve"
     style="fill:#000000;stroke:none;stroke-width:0.88;stroke-dasharray:none"
     x="229.06259"
     y="234.72475"
     id="text47-9"><tspan
       sodipodi:role="line"
       id="tspan47-3"
       x="229.06259"
       y="234.72475">N_2</tspan></text>
  <text
     xml:space="preserve"
     style="fill:#000000;stroke:none;stroke-width:0.88;stroke-dasharray:none"
     x="106.98729"
     y="185.77345"
     id="text48"><tspan
       sodipodi:role="line"
       id="tspan48"
       x="106.98729"
       y="185.77345">M_1</tspan></text>
  <path
     style="fill:#000000;stroke:none;stroke-width:1.12824;stroke-dasharray:none"
     id="path48"
     d="m 100.93917,183.45807 c 0.88779,-1.42252 1.84332,-2.82855 2.7994,-4.23469 0.85806,-1.29533 1.97288,-2.51577 3.13146,-3.71809 0.74779,-0.7285 1.52575,-1.46248 2.56783,-2.04801 1.15702,-0.61468 2.53937,-1.03903 3.85361,-1.51271 1.76269,-0.62496 3.73285,-0.95321 5.69141,-1.26367 2.19872,-0.30446 4.42055,-0.53672 6.66608,-0.66125 1.80183,-0.0821 3.61005,-0.0858 5.41592,-0.0912 1.99244,0.0376 3.9542,0.29142 5.92017,0.47649 1.6215,0.21528 3.29482,0.2851 4.89548,0.55436 1.18693,0.2458 2.39606,0.46589 3.50113,0.83073 -8.51323,-2.90792 -5.07476,-1.82413 -3.30135,-1.10293 0.66484,0.27037 1.30258,0.5622 1.93346,0.8607 1.18255,0.6011 2.141,1.33787 2.88973,2.15348 0.86244,1.13535 1.03855,2.40445 1.34031,3.628 0.4518,1.6613 0.41011,3.34258 0.26508,5.01732 -0.13346,1.79504 -0.19325,3.58887 -0.56211,5.37312 -0.32939,1.31205 -0.63378,2.62918 -1.24674,3.90515 -0.50778,1.17935 -1.29262,2.29358 -2.11206,3.40138 -0.62908,0.95195 -1.61371,1.74522 -2.83225,2.44228 -1.66633,0.94155 -3.62697,1.36786 -5.75904,1.77018 -2.75722,0.45381 -5.59549,0.61716 -8.44187,0.55111 -2.40755,-0.12964 -4.69927,-0.6086 -6.95495,-1.10844 -2.09074,-0.48686 -4.13387,-1.04312 -6.20048,-1.56537 -2.29583,-0.52102 -8.10637,-2.66107 1.01666,0.53628 -1.25435,-0.39867 -1.92601,-1.11393 -2.52979,-1.85787 -0.28468,-0.36497 -0.51293,-0.73938 -0.58589,-1.1415 0,0 -5.46593,-1.65546 -5.46593,-1.65546 v 0 c 0.0593,0.45132 0.25286,0.873 0.57919,1.28249 0.57756,0.76936 1.1832,1.59962 2.40429,2.06259 3.0443,1.07084 5.95834,2.23388 9.23647,3.00701 2.04706,0.5208 4.08919,1.0496 6.16631,1.52524 2.29122,0.48691 4.62501,0.94348 7.06876,1.0165 2.86863,0.003 5.70628,-0.22593 8.48408,-0.67042 0.8611,-0.15853 1.89166,-0.3333 2.72852,-0.54422 1.22805,-0.30951 2.33811,-0.77143 3.32767,-1.30617 1.34958,-0.79186 2.22418,-1.50273 2.94673,-2.56594 0.81381,-1.12854 1.53434,-2.27576 2.11921,-3.45657 0.60095,-1.30529 0.95642,-2.63961 1.19283,-3.9874 0.33261,-1.79472 0.41572,-3.5971 0.5639,-5.39995 0.12986,-1.68548 0.26455,-3.37986 -0.14251,-5.05664 -0.28598,-1.24351 -0.43669,-2.51973 -1.15096,-3.70659 -0.68263,-0.86606 -1.63812,-1.63617 -2.79297,-2.29263 -2.70076,-1.37098 -5.83091,-2.3651 -8.89339,-3.40404 -1.15719,-0.31545 -2.36532,-0.56481 -3.58816,-0.76788 -1.59429,-0.19654 -3.21789,-0.29362 -4.81547,-0.48136 -1.99891,-0.19301 -3.99439,-0.44931 -6.02717,-0.45246 -1.80445,0.006 -3.60916,0.0294 -5.40647,0.13714 -2.24308,0.14797 -4.45673,0.40274 -6.64658,0.73457 -2.04287,0.3078 -4.09799,0.63376 -5.92491,1.29325 -1.35057,0.49132 -2.75231,0.94064 -3.94895,1.57157 -1.06053,0.6242 -1.86846,1.38552 -2.59133,2.16491 -1.11847,1.23581 -2.195254,2.48723 -3.035175,3.80481 -0.917806,1.3956 -1.829902,2.80643 -3.066771,4.11079 z" />
  <path
     style="fill:#000000;stroke:none;stroke-width:0.88;stroke-dasharray:none"
     id="path49"
     d="m 106.28631,194.29771 c 0.11168,0.62944 0.14689,1.26976 0.16968,1.9077 0.0291,0.65341 0.0314,1.30784 0.0289,1.9618 0.001,0.50065 -0.0282,1.00143 2.9e-4,1.50155 0.014,0.0796 0.0281,0.15915 0.0421,0.23873 0,0 3.35262,1.60557 3.35262,1.60557 v 0 c -0.0219,-0.0635 -0.0438,-0.12705 -0.0657,-0.19057 -0.0756,-0.4881 -0.0143,-0.9894 -0.0434,-1.48166 -0.005,-0.65763 -0.003,-1.31532 -0.0164,-1.97287 -0.0327,-0.64056 -0.0802,-1.27984 -0.12192,-1.91975 z" />
  <path
     style="fill:#000000;stroke:none;stroke-width:0.88;stroke-dasharray:none"
     id="path50"
     d="m 110.88651,195.30161 c 0.75757,-0.27633 1.55796,-0.41272 2.33978,-0.60394 0.67346,-0.1579 1.34604,-0.31604 2.03122,-0.41397 0.35806,-0.0372 0.17734,-0.0106 0.54194,-0.0812 0,0 -3.02982,-2.12404 -3.02982,-2.12404 v 0 c -0.36119,0.0531 -0.18098,0.026 -0.54062,0.0814 -0.67404,0.1315 -1.34367,0.28412 -2.00704,0.46199 -0.79204,0.18856 -1.58692,0.3754 -2.38632,0.5269 z" />
  <path
     style="fill:#000000;stroke:none;stroke-width:0.88;stroke-dasharray:none"
     id="path51"
     d="m 109.39954,196.02252 c -0.0641,-0.18216 -0.0448,-0.37667 -0.0375,-0.56567 0.001,-0.0785 0.0361,-0.14753 0.06,-0.21981 0.007,-0.022 0.0116,-0.0448 0.0174,-0.0672 0.008,-0.022 0.0151,-0.0441 0.0226,-0.0661 0.0264,-0.10909 0.0663,-0.14654 0.15893,-0.20058 0.0201,-0.0101 0.0395,-0.0218 0.0604,-0.0302 0.0224,-0.009 0.0466,-0.0132 0.0691,-0.022 0.082,-0.0321 0.15752,-0.0789 0.24539,-0.0957 0.0243,-0.005 0.0493,-0.003 0.074,-0.005 0.0773,-0.0131 0.11843,0.0177 0.18567,0.04 0.0207,0.007 0.0426,0.009 0.0637,0.0148 0.077,0.02 0.0597,0.016 0.13418,0.0486 0.024,0.007 0.048,0.0143 0.072,0.0214 0,0 -2.90373,-2.22476 -2.90373,-2.22476 v 0 c -0.0239,-0.005 -0.0477,-0.0106 -0.0716,-0.016 -0.0803,-0.007 -0.16712,-0.0243 -0.24784,-0.017 -0.084,0.008 -0.16297,0.0435 -0.24131,0.0713 -0.0254,0.0122 -0.1355,0.0652 -0.16162,0.0763 -0.12056,0.0515 -0.2455,0.0917 -0.35422,0.16794 -0.0815,0.0579 -0.16278,0.11729 -0.22118,0.2006 -0.0431,0.0614 -0.0548,0.13702 -0.0809,0.20558 -0.0494,0.17694 0.0191,-0.0587 -0.0426,0.12235 -0.0367,0.10759 -0.0611,0.21999 -0.067,0.33363 -0.001,0.0327 -0.005,0.0654 -0.004,0.0982 9.9e-4,0.12573 0.0188,0.25693 -0.0142,0.38093 -0.006,0.0216 -0.0177,0.041 -0.0265,0.0614 z" />
  <text
     xml:space="preserve"
     style="fill:#000000;stroke:none;stroke-width:0.88;stroke-dasharray:none"
     x="272.56168"
     y="185.20335"
     id="text48-1"><tspan
       sodipodi:role="line"
       id="tspan48-8"
       x="272.56168"
       y="185.20335">M_2</tspan></text>
  <path
     style="fill:#000000;stroke:none;stroke-width:1.02188;stroke-dasharray:none"
     id="path48-7"
     d="m 267.38167,182.88797 c 0.72831,-1.42252 1.51218,-2.82855 2.2965,-4.23469 0.70393,-1.29533 1.61847,-2.51577 2.56891,-3.71809 0.61346,-0.7285 1.25166,-1.46248 2.10653,-2.04801 0.94916,-0.61468 2.08318,-1.03903 3.16133,-1.51271 1.44603,-0.62496 3.06225,-0.95321 4.66898,-1.26367 1.80373,-0.30446 3.62641,-0.53672 5.46854,-0.66125 1.47815,-0.0821 2.96152,-0.0858 4.44299,-0.0912 1.63451,0.0376 3.24384,0.29142 4.85663,0.47649 1.3302,0.21528 2.70292,0.2851 4.01603,0.55436 0.9737,0.2458 1.96563,0.46589 2.87218,0.83073 -6.98388,-2.90792 -4.16312,-1.82413 -2.70829,-1.10293 0.54542,0.27037 1.06859,0.5622 1.58613,0.8607 0.9701,0.6011 1.75637,1.33787 2.37061,2.15348 0.7075,1.13535 0.85197,2.40445 1.09952,3.628 0.37063,1.6613 0.33644,3.34258 0.21747,5.01732 -0.1095,1.79504 -0.15855,3.58887 -0.46113,5.37312 -0.27023,1.31205 -0.51994,2.62918 -1.02278,3.90515 -0.41656,1.17935 -1.0604,2.29358 -1.73264,3.40138 -0.51606,0.95195 -1.32381,1.74522 -2.32344,2.44228 -1.36699,0.94155 -2.97541,1.36786 -4.72446,1.77018 -2.26191,0.45381 -4.59028,0.61716 -6.92533,0.55111 -1.97504,-0.12964 -3.85507,-0.6086 -5.70552,-1.10844 -1.71516,-0.48686 -3.39125,-1.04312 -5.0866,-1.56537 -1.88339,-0.52102 -6.6501,-2.66107 0.83402,0.53628 -1.029,-0.39867 -1.58001,-1.11393 -2.07532,-1.85787 -0.23353,-0.36497 -0.42078,-0.73938 -0.48065,-1.1415 0,0 -4.48399,-1.65546 -4.48399,-1.65546 v 0 c 0.0487,0.45132 0.20743,0.873 0.47514,1.28249 0.4738,0.76936 0.97064,1.59962 1.97238,2.06259 2.49739,1.07084 4.88793,2.23388 7.57717,3.00701 1.67931,0.5208 3.35459,1.0496 5.05856,1.52524 1.87962,0.48691 3.79415,0.94348 5.79888,1.0165 2.35331,0.003 4.68119,-0.22593 6.95996,-0.67042 0.70642,-0.15853 1.55184,-0.3333 2.23836,-0.54422 1.00745,-0.30951 1.91809,-0.77143 2.72988,-1.30617 1.10712,-0.79186 1.82461,-1.50273 2.41736,-2.56594 0.66761,-1.12854 1.2587,-2.27576 1.7385,-3.45657 0.49299,-1.30529 0.78461,-2.63961 0.97855,-3.9874 0.27286,-1.79472 0.34104,-3.5971 0.4626,-5.39995 0.10656,-1.68548 0.21702,-3.37986 -0.11692,-5.05664 -0.2346,-1.24351 -0.35824,-2.51973 -0.94419,-3.70659 -0.56,-0.86606 -1.34384,-1.63617 -2.29122,-2.29263 -2.21559,-1.37098 -4.78343,-2.3651 -7.29574,-3.40404 -0.94931,-0.31545 -1.9404,-0.56481 -2.94357,-0.76788 -1.30788,-0.19654 -2.63981,-0.29362 -3.95039,-0.48136 -1.63981,-0.19301 -3.27682,-0.44931 -4.94442,-0.45246 -1.48029,0.006 -2.96079,0.0294 -4.43522,0.13714 -1.84013,0.14797 -3.6561,0.40274 -5.45256,0.73457 -1.67588,0.3078 -3.3618,0.63376 -4.86053,1.29325 -1.10794,0.49132 -2.25787,0.94064 -3.23953,1.57157 -0.87001,0.6242 -1.5328,1.38552 -2.12581,2.16491 -0.91755,1.23581 -1.80089,2.48723 -2.48992,3.80481 -0.75293,1.3956 -1.50117,2.80643 -2.51584,4.11079 z" />
  <path
     style="fill:#000000;stroke:none;stroke-width:0.88;stroke-dasharray:none"
     id="path49-9"
     d="m 271.86069,193.72761 c 0.11168,0.62944 0.14689,1.26976 0.16968,1.9077 0.0291,0.65341 0.0314,1.30784 0.0289,1.9618 10e-4,0.50065 -0.0282,1.00143 2.9e-4,1.50155 0.014,0.0796 0.0281,0.15915 0.0421,0.23873 0,0 3.35262,1.60557 3.35262,1.60557 v 0 c -0.0219,-0.0635 -0.0438,-0.12705 -0.0657,-0.19057 -0.0756,-0.4881 -0.0143,-0.9894 -0.0434,-1.48166 -0.005,-0.65763 -0.003,-1.31532 -0.0164,-1.97287 -0.0327,-0.64056 -0.0802,-1.27984 -0.12192,-1.91975 z" />
  <path
     style="fill:#000000;stroke:none;stroke-width:0.88;stroke-dasharray:none"
     id="path50-2"
     d="m 276.46089,194.73151 c 0.75757,-0.27633 1.55796,-0.41272 2.33978,-0.60394 0.67346,-0.1579 1.34604,-0.31604 2.03122,-0.41397 0.35806,-0.0372 0.17734,-0.0106 0.54194,-0.0812 0,0 -3.02982,-2.12404 -3.02982,-2.12404 v 0 c -0.36119,0.0531 -0.18098,0.026 -0.54062,0.0814 -0.67404,0.1315 -1.34367,0.28412 -2.00704,0.46199 -0.79204,0.18856 -1.58692,0.3754 -2.38632,0.5269 z" />
  <path
     style="fill:#000000;stroke:none;stroke-width:0.88;stroke-dasharray:none"
     id="path51-0"
     d="m 274.97392,195.45242 c -0.0641,-0.18216 -0.0448,-0.37667 -0.0375,-0.56567 10e-4,-0.0785 0.0361,-0.14753 0.06,-0.21981 0.007,-0.022 0.0116,-0.0448 0.0174,-0.0672 0.008,-0.022 0.0151,-0.0441 0.0226,-0.0661 0.0264,-0.10909 0.0663,-0.14654 0.15893,-0.20058 0.0201,-0.0101 0.0395,-0.0218 0.0604,-0.0302 0.0224,-0.009 0.0466,-0.0132 0.0691,-0.022 0.082,-0.0321 0.15752,-0.0789 0.24539,-0.0957 0.0243,-0.005 0.0493,-0.003 0.074,-0.005 0.0773,-0.0131 0.11843,0.0177 0.18567,0.04 0.0207,0.007 0.0426,0.009 0.0637,0.0148 0.077,0.02 0.0597,0.016 0.13418,0.0486 0.024,0.007 0.048,0.0143 0.072,0.0214 0,0 -2.90373,-2.22476 -2.90373,-2.22476 v 0 c -0.0239,-0.005 -0.0477,-0.0106 -0.0716,-0.016 -0.0803,-0.007 -0.16712,-0.0243 -0.24784,-0.017 -0.084,0.008 -0.16297,0.0435 -0.24131,0.0713 -0.0254,0.0122 -0.1355,0.0652 -0.16162,0.0763 -0.12056,0.0515 -0.2455,0.0917 -0.35422,0.16794 -0.0815,0.0579 -0.16278,0.11729 -0.22118,0.2006 -0.0431,0.0614 -0.0548,0.13702 -0.0809,0.20558 -0.0494,0.17694 0.0191,-0.0587 -0.0426,0.12235 -0.0367,0.10759 -0.0611,0.21999 -0.067,0.33363 -10e-4,0.0327 -0.005,0.0654 -0.004,0.0982 9.9e-4,0.12573 0.0188,0.25693 -0.0142,0.38093 -0.006,0.0216 -0.0177,0.041 -0.0265,0.0614 z" />
  <path
     style="fill:#000000;stroke-width:3.77953;-inkscape-stroke:none"
     d="M 363.8496,156.26417 V 121.7705 h -2.02329 v 34.69477 z"
     id="path39-6-23" />
  <path
     style="fill:#000000;stroke-width:3.77953;-inkscape-stroke:none"
     d="m 362.63312,120.52992 -6.65317,3.84121 h 14.34399 z"
     id="path40-7-7" />
  <text
     xml:space="preserve"
     style="fill:#000000;stroke-width:3.77953;-inkscape-stroke:none"
     x="372.06482"
     y="128.73875"
     id="text40-5"><tspan
       sodipodi:role="line"
       id="tspan40-9"
       x="372.06482"
       y="128.73875" /><tspan
       sodipodi:role="line"
       x="372.06482"
       y="143.73875"
       id="tspan51">i_3 =</tspan><tspan
       sodipodi:role="line"
       x="372.06482"
       y="158.73875"
       id="tspan62">3A</tspan><tspan
       sodipodi:role="line"
       x="372.06482"
       y="173.73875"
       id="tspan52" /></text>
</svg>
